<svg xmlns="http://www.w3.org/2000/svg" xmlns:xlink="http://www.w3.org/1999/xlink" width="589.134" height="821.43" viewBox="0 0 589.134 821.43">
  <defs>
    <linearGradient id="linear-gradient" y1="0.5" x2="1" y2="0.5" gradientUnits="objectBoundingBox">
      <stop offset="0" stop-color="#cbb09c"/>
      <stop offset="1" stop-color="#f5ceb6"/>
    </linearGradient>
    <linearGradient id="linear-gradient-5" y1="0.5" x2="1" y2="0.5" gradientUnits="objectBoundingBox">
      <stop offset="0" stop-color="#92bc7b"/>
      <stop offset="1" stop-color="#567542"/>
    </linearGradient>
    <linearGradient id="linear-gradient-14" x1="1" y1="0.5" x2="0" y2="0.5" gradientUnits="objectBoundingBox">
      <stop offset="0" stop-color="#ccb19d"/>
      <stop offset="1" stop-color="#785e3e"/>
    </linearGradient>
    <linearGradient id="linear-gradient-18" x1="0" y1="0.5" x2="1" y2="0.5" xlink:href="#linear-gradient-14"/>
  </defs>
  <g id="Group_6" data-name="Group 6" transform="translate(-3946.898 -67.034)">
    <path id="Path_245" data-name="Path 245" d="M4677.816,818.37V805.692l-8.062-18.915L4646.337,776.1l-5.951-.327-.767,13.933,10.173,6.094-.96,11.794-33.015,22.565-219.394,58.994-66.6,6.075-55.088-3.263-53.371-10.941L4174.342,862.4l-9.214-13.976-.191-10.785,9.4-5.759,7.87-6.088,3.263-4.364-13.437-8.742-5.053-2.112-24.314,20.236-6.142,15.658,3.455,18.043,6.334,13.82,1.919,11.266-3.033,43.32c52.053,83.242,111.776,86.33,259.476,81.945,119.517-3.548,228.576-42.207,269.009-97.094l-1.842-36.465-5.356-33.107,3.643-17.72Z" transform="translate(-172.707 -127.636)" fill="#43413f"/>
    <path id="Path_246" data-name="Path 246" d="M4256.771,539.08s-17.224-15.171-19.14-15.171-12.443-20.486-12.443-20.486l-3.7-26.461,8.251-24.755,14.8-28.737,3.7-25.608,2.607-16.787-13.211-3.7-17.849,3.13-6.829,11.665,2.276,11.1L4204.7,375.1s3.414-11.666,3.414-13.089,4.552-13.373,4.552-13.373l15.365-9.105,22.809-3.13,15.887,4.553,20.487,18.779,9.389,25.323-3.13,25.608-7.967,14.511-11.1,19.917-9.1,13.373s-7.683,17.357-8.536,18.495-3.415,18.494-3.415,18.494l-2.514,17.641,3.368,16.845Z" transform="translate(-172.707 -127.636)" fill="url(#linear-gradient)"/>
    <path id="Path_247" data-name="Path 247" d="M4401.734,471.538s7.5-14.933,7.807-16.289-3.9-37.461-3.9-38.387-7.973-21.128-7.973-21.128l-11.382-25.323-7.967-17.641V323.179l7.4-25.608L4395.956,264l-3.414-26.746-11.1-21.055L4354.13,200.83l-13.942-3.13,15.365,12.52s1.423,11.1,1.423,11.95-7.683,34.144-7.683,34.144l-17.356,36.42-6.829,28.737,1.707,31.868,22.763,39.834,27.884,26.746,11.1,15.473,6.828,22.939.569,16.218-.284,4.837Z" transform="translate(-172.707 -127.636)" fill="url(#linear-gradient)"/>
    <path id="Path_248" data-name="Path 248" d="M4495.721,499.939l15.364-17.516,9.885-27.236-1.486-42.954L4506.2,378.94l-15.5-27.781-4.592-32.262,6.7-34.481,27.011-38.819,23.594-13.6,4.691-3.346s-20.1-3.647-20.955-3.609-37.251,13.933-37.251,13.933l-37.35,49.539-4.521,44.865,1.444,31.914s17.2,21.415,17.242,22.268,24.113,35.651,24.113,35.651l9.556,22.354,3.174,19.794.513,17.636-3.89,8.435Z" transform="translate(-172.707 -127.636)" fill="url(#linear-gradient)"/>
    <path id="Path_249" data-name="Path 249" d="M4626.051,409.318a30.448,30.448,0,0,0,1.7-13.73c-.922-7.923-4.669-14.059-12.073-17.006a73.488,73.488,0,0,0-16.34-4.118c-5.545-.821-10.416,1.675-14.633,5.2-9.377,7.847-15.073,24.484-5.248,37.789,1.483,2.009,3.017,3.978,4.515,5.976,8.117,10.819,10.807,22.7,6.722,35.778-4.816,15.419-13.567,28.439-24.712,39.954a2.942,2.942,0,0,1-2.231.916c.879-1.346,1.8-2.668,2.63-4.042,2.845-4.7,5.828-9.317,8.447-14.135,4.468-8.223,6.02-16.974,5.76-26.44-.376-13.716-5.261-25.224-14.154-35.336-3.627-4.125-7.195-8.3-10.744-12.5-8.655-10.229-10.519-21.929-7.413-34.683.237-.97.462-1.945.755-2.9,6.548-21.266,19.107-31.885,45.015-32.645,11.148-.328,21.639,3.1,31.485,8.4a25.561,25.561,0,0,1,13.607,18.106c2,9.609,2.176,19.154-.65,28.649A30.954,30.954,0,0,1,4626.051,409.318Z" transform="translate(-172.707 -127.636)" fill="url(#linear-gradient)"/>
    <path id="Path_250" data-name="Path 250" d="M4396.99,482.423a60.3,60.3,0,0,0,1.807-6.606c1.493-9.364.306-18.5-2.56-27.485a81.747,81.747,0,0,0-23.082-35.78c-12.067-11.114-23.678-22.6-33.154-36.166-11.255-16.115-15.217-33.443-11.728-52.848a224.381,224.381,0,0,1,16.115-51.584c4.383-9.869,8.4-19.909,12.314-29.976a45.315,45.315,0,0,0,2.576-25.891c-.889-4.3-2.733-8.407-4.3-13.073,2.217,1.279,4.3,2.3,6.194,3.6a73.873,73.873,0,0,1,26.858,33.348c6.274,14.956,6,29.082.61,43.784-3.253,8.875-6.662,17.727-9.237,26.807-2.387,8.414-4.572,17.039-5.4,25.71a65.327,65.327,0,0,0,9.349,40.306c4.242,7.107,8.932,13.95,13.048,21.126,10.556,18.406,16.536,37.722,10.855,59.161a29.391,29.391,0,0,0-.484,4.745,2.768,2.768,0,0,0,1.86-1.944c3.511-13.643,4.238-27.4.713-41.1a105.482,105.482,0,0,0-6.36-18.091c-4.976-10.715-10.345-21.262-15.933-31.673-7.356-13.705-9.514-27.876-5.842-43.107a161.217,161.217,0,0,1,9.013-27.375A115.481,115.481,0,0,0,4398.4,270.7c1.726-10.321,1.1-20.488-3.748-30.138a89.8,89.8,0,0,0-22.946-29.35c-9.016-7.456-19.042-13.45-30.747-15.929-1.484-.314-3.014-.411-4.522-.609a14.233,14.233,0,0,0,3.977,3.7c13.038,8.694,15.859,21.3,12.958,35.614a117.082,117.082,0,0,1-6.254,19.742c-5.173,13.021-10.419,26.036-16.308,38.742-6.981,15.063-9.542,30.907-9.72,47.249a75.135,75.135,0,0,0,1.6,15.537c2.243,11.116,9.037,19.9,15.812,28.546,9,11.473,19.469,21.544,30.376,31.194,9.971,8.823,18.226,18.946,23.213,31.524A77.813,77.813,0,0,1,4396.99,482.423Zm144.128-252.946c-2.339,1.411-3.765,2.256-5.176,3.125-20.212,12.441-35.56,29.059-43.177,51.873a140.75,140.75,0,0,0-5.043,22.682c-3.508,22.269-1.215,43.771,9.289,64.074,4.112,7.948,8.354,15.87,11.791,24.116,3.429,8.227,6.784,16.662,8.623,25.334,2.679,12.626,1.565,25.587.554,38.393a45.08,45.08,0,0,1-12.14,27.8c-2.87,3.1-5.376,6.531-8.048,9.812l.662.768a67.731,67.731,0,0,0,6.835-4.832c9.564-8.628,14.353-20.031,17.014-32.178a89.6,89.6,0,0,0,1.427-25.206c-1.09-16.268-4.892-31.637-12.556-46.053-3.645-6.857-7.408-13.682-10.521-20.784-7.9-18.008-12.885-36.662-10.648-56.6,2.405-21.443,9.739-40.784,25.625-55.935,7.557-7.208,15.861-13.65,24.009-20.212,4.3-3.466,9-6.446,14.576-10.4a59.99,59.99,0,0,0-6.313-.81c-6.417-.052-12.841-.115-19.251.119a35.711,35.711,0,0,0-9.477,1.414c-11.834,3.781-23.084,8.907-32.215,17.535a149.947,149.947,0,0,0-14.539,16.18c-8.832,11.193-16.082,23.268-20.467,37.042a137.311,137.311,0,0,0-6.087,40.428c-.134,11.6,1.4,22.947,6.876,33.409a130.9,130.9,0,0,0,6.8,11.857c7.39,11.115,14.983,22.094,22.47,33.144,6.262,9.243,12.366,18.59,15.606,29.424,4.338,14.51,3.339,29.056.026,43.586-.379,1.659-.824,3.3-1.238,4.953l1.089.29c3.9-7.98,7.207-16.161,7.8-25.245.569-8.757-2.11-17.044-3.7-25.49a51.245,51.245,0,0,0-8.063-19.535c-3.7-5.447-7.593-10.768-11.445-16.113-8.7-12.071-17.37-24.178-23.492-37.822a59.323,59.323,0,0,1-4.728-14.371,124.34,124.34,0,0,1-1.517-31.8c2.592-27.875,13.78-51.529,33.4-71.475a78.269,78.269,0,0,1,39.206-21.921C4529.843,228.939,4534.79,227.812,4541.118,229.477ZM4243.285,532.084c-.811-1-1.69-1.956-2.422-3.012-3.078-4.438-6.337-8.771-9.117-13.391-7.181-11.929-8.543-25.2-7.7-38.682a46.9,46.9,0,0,1,5.327-19.921c9.263-16.739,16.451-34.4,23.024-52.3,1.485-4.045,1.877-8.538,2.432-12.869.983-7.666-4.742-15.264-13.812-17.334-9.475-2.162-17.269.633-24.289,6.794-1.482,1.3-3.122,2.42-5.073,3.919a42.425,42.425,0,0,1,.539-24.936,25.042,25.042,0,0,1,8.23-11.931c17.075-13.68,43.123-14.456,59.731,4.631a64.9,64.9,0,0,1,14.441,28.689,46.034,46.034,0,0,1,.111,19.61c-1.955,9.568-5.993,18.289-10.888,26.615-4.8,8.156-9.851,16.162-14.884,24.176a173.293,173.293,0,0,0-15.574,30.683c-3.824,10.086-5.906,20.47-4.529,31.287a46.4,46.4,0,0,0,6.292,19.148c-.686-5.1-1.537-9.241-1.723-13.415a96,96,0,0,1,.5-12.645c1.525-17.275,6.054-33.62,16.215-47.912,8.364-11.764,14.528-24.751,21.522-37.278a81.552,81.552,0,0,0,8.331-23.822,15.271,15.271,0,0,0,.339-5.021c-2.772-19.931-10.244-37.445-26.6-50.115a45.053,45.053,0,0,0-21.3-8.866c-14.656-2.089-27.211,3.084-37.953,13.014a25.508,25.508,0,0,0-6.7,10.013c-5.5,14.827-3.41,29.238,2.44,43.4a13.324,13.324,0,0,0,2.946,4.066c.653.659,1.845.784,2.909,1.2a7.064,7.064,0,0,0,.092-1.5c-3.309-13.479,4.165-24.752,17.92-25.257,11.909-.438,16.062,3.543,15.833,15a22.91,22.91,0,0,1-.458,3.514,129.716,129.716,0,0,1-11.282,33.494c-4.534,9.426-9.415,18.685-14.165,28.006-6.1,11.971-7.023,24.656-4.424,37.543C4222.56,511.526,4228.608,524.667,4243.285,532.084Z" transform="translate(-172.707 -127.636)" fill="#fff"/>
    <path id="Path_251" data-name="Path 251" d="M4671.593,886.926c-4.013-3.28-5.295-7.386-5.816-11.861-1.172-10.067-2.9-20.094-2.123-30.3.02-.265-.248-.552-.543-1.165-1.154.618-2.322,1.19-3.437,1.849-9.156,5.415-18.331,10.8-27.447,16.281-37.49,22.549-77.974,36.931-120.936,44.645-3.459.621-6.731,2.234-10.178,2.971-13.028,2.784-26.038,5.709-39.154,8.012-34.731,6.1-69.886,6.868-105.006,7.3-12.96.159-25.947-1.465-38.913-2.4-10.774-.781-21.531-1.8-32.3-2.626-33.913-2.6-67.45-7.318-100.04-17.505-11.691-3.654-22.71-8.633-32.545-16.044-.916-.691-1.907-1.28-2.668-1.786-.407,12.194-.778,24.243-1.242,36.289a17.965,17.965,0,0,1-.967,5.455,3.268,3.268,0,0,1-2.509,1.837c-.823-.1-1.622-1.409-2.165-2.344-.287-.493,0-1.316.021-1.99.295-10.3.911-20.6.77-30.887-.1-7.016-2.065-13.591-7.519-18.757-3.751-3.554-5.616-7.992-3.977-13.341a7.633,7.633,0,0,0,.176-2.519c-.439-10.051,3.6-18.4,9.816-25.915a76.2,76.2,0,0,1,18.9-15.962c1.568-.974,3.139-1.943,4.654-2.881-.466-6.227-5.5-12.862,2.531-17.954-12.251-12.836-16.829-28.7-19.46-45.512-1.329-8.493-3.516-16.853-5.385-25.257a17.088,17.088,0,0,0-6.119-9.678c-1.831-1.5-3.654-3.008-5.532-4.446-11.135-8.521-14.682-19.9-12.029-33.283,1.749-8.824,5.662-16.659,13-22.295,5.218-4.005,10.474-7.979,15.911-11.676,6.971-4.741,14.624-6.686,23.113-5.085,5.585,1.054,11.257,1.649,17.529,2.54.275-2.651.591-5.707.944-9.114,4.986-2.555,10.379-2.192,15.746-.447,16.587-26.94,39.108-46.995,67.249-60.78A87.126,87.126,0,0,1,4285.6,565.4c14.978-4.793,30.246-8.487,45.927-9.889,4.912-.439,9.965.692,14.953,1.1.667.055,1.334.1,2.739.2,0-2.6-.069-5.072.018-7.538.106-3.035,1.5-4.922,4.665-5.673,7.515-1.782,14.864-.183,17.155,7.3a11.641,11.641,0,0,0,1.26,2.078c4.509-2.507,8.949-4.9,13.319-7.419a119.025,119.025,0,0,1,29.61-11.615c7.328-1.916,14.682-1.647,22.13-.744a50.451,50.451,0,0,0,12.576.208c13.188-1.752,20.175,1.618,26.5,13.465.706,1.323,1.361,2.675,2.187,4.3,2.892-.544,5.671-1.09,8.459-1.586,10.063-1.794,19.489-.465,27.986,5.633,3.055,2.193,6.013,4.405,6.846,8.237,6.445,1.353,6.445,1.353,9.792,4.828,6.389-1.3,12.81-2.63,19.237-3.928a30.627,30.627,0,0,1,15.069.413c10.32,3.145,20.6,6.464,30.734,10.16a47.641,47.641,0,0,1,16.118,10.334c2.577,2.414,5.492,4.467,8.544,6.915,1.083-1.231,2.069-2.51,3.214-3.624,2.3-2.241,5.052-3.521,8.28-2.572,2.593.762,4.686,4.4,4.552,7.853a68.169,68.169,0,0,1-.974,7.008c12.9,4.946,25.8,9.865,38.668,14.854,2.04.791,3.957,1.9,5.935,2.85,16.356,7.882,24.624,21.234,27.081,38.949,1.23,8.865.155,17.525-.65,26.241-.655,7.091-3.72,13.355-8.086,18.86-4.934,6.22-10.437,11.995-15.26,18.295a91.137,91.137,0,0,1-17.372,16.863c-4.8,3.678-9.277,7.786-14.074,11.851,2.554,1.76,4.139,4.4,3.345,7.746a6.881,6.881,0,0,1-5.062,5.219,31.2,31.2,0,0,1-5.48.831c-1.643.135-3.305.029-5.279.029.34,2.736.647,4.891.865,7.054.22,2.179.351,4.367.556,7,3.022.663,6.159,1.152,9.17,2.058,5.311,1.6,10.633,3.231,15.786,5.267,3.875,1.53,6.4,4.674,8.5,8.347,4.471,7.836,6.157,16.307,6.586,25.152a7.533,7.533,0,0,0,.042,2.019c1.656,4.721-.459,8.13-4.043,10.688-5.453,3.894-6.939,9.48-6.642,15.553.438,8.93,1.338,17.843,2.23,26.744C4673.766,877.881,4674.2,882.35,4671.593,886.926Zm-298.185-98.914c15.995-3.088,31.949-5.351,47.173-11.231-2.025-6.182-3.686-11.828-5.719-17.337-4.441-12.035-9.034-24.014-13.635-35.989-5.867-15.273-12.962-30.09-17.039-46.03-.088-.344-.653-.567-1.354-1.139-2.78,8.98-5.49,17.667-8.153,26.368-1.148,3.75-2.455,7.345-5.747,9.875a12.274,12.274,0,0,0-2.139,2.809c-6.437,9.106-12.787,18.274-19.314,27.315a354.5,354.5,0,0,1-41.9,48.1,54.133,54.133,0,0,1-4.442,3.489l-1-.957c1.006-1.423,1.931-2.913,3.031-4.26,4.919-6.018,10.231-11.747,14.777-18.031,16.633-23,33.176-46.062,49.4-69.348,4.9-7.03,8.682-14.842,12.92-22.328,2.349-4.149,2.578-8.295,1.164-13.049-7.7-25.885-15.046-51.873-22.562-77.812-2.019-6.969-4.183-13.9-6.331-20.829a20.543,20.543,0,0,0-1.272-2.774c-2.94-.178-5.427-.4-7.919-.466-4.373-.118-8.8-.578-13.113-.1-6.184.68-12.308,1.976-18.424,3.177-11.27,2.214-22.354,4.967-32.936,9.687-28.153,12.56-49.015,33.6-67.089,57.022,1.846,5.124,4.061,9.894,5.292,14.907,10.327,42.064,24.842,82.757,40.1,123.2,2.853,7.561,6.631,14.772,9.964,22.153,1.014,2.245,2.49,3.053,5.14,2.972,23.641-.716,47.222-2.207,70.726-4.874,6.541-.742,13.089-1.43,19.622-2.237a7.393,7.393,0,0,0,5.818-3.295c7.035-10.326,14.373-20.446,21.624-30.624a9.75,9.75,0,0,1,1.768-1.3C4387.675,767.608,4382.688,778.873,4373.408,788.012Zm75.028-22.588a35.966,35.966,0,0,0,3.926-1.239c5.505-2.569,11.055-5.055,16.453-7.836,17.891-9.22,33.06-22.147,47.885-35.522a4.6,4.6,0,0,0,1.318-1.488c2.707-6.959,4.841-14.068,4.133-21.644a6.687,6.687,0,0,0-2.281-3.7,19.9,19.9,0,0,0-4.309-2.629c-5.8-3.059-8.968-8.021-10.335-14.271-.541-2.472-.7-5.053-1.461-7.449-2.805-8.84-5.929-17.579-8.671-26.438a127.245,127.245,0,0,0-16.826-34.478c-7.361-10.727-9.062-22.316-6.562-34.8,1.607-8.027,1.088-15.758-2.956-23.093-4.474-8.115-8.661-10.325-17.771-8.528a41.414,41.414,0,0,1-15.088.068,46.148,46.148,0,0,0-18.582.614c-15.17,3.608-28.463,11.194-42,19.206,3.684,13.278,7.347,26.484,11.307,40.756,9.367-15.876,20.864-28.854,33.184-41.16-9.869,15.226-19.624,30.531-33.03,42.906,2.716,15.263,31.34,103.193,36.683,112.4l53.454-75.906c-11.21,31.069-29.349,57.618-52.139,81.125,6.079,14.022,12.014,27.711,18.163,41.892,16.382-24.483,36.295-45.586,49.6-71.356-3.993,17.523-9.708,34.153-22.322,47.527-2.431,2.577-4.553,5.444-6.885,8.118C4458.57,753.952,4453.77,759.366,4448.436,765.424Zm-176.78,50.767c.416,2.237.525,3.4.853,4.495,5.32,17.8,10.79,35.533,19.32,52.161,3.449,6.724,6.333,13.738,9.744,21.212,1.828.259,4.308.794,6.809.933,10.627.591,21.256,1.382,31.892,1.5,16.042.184,32.134.571,48.121-.453,13.092-.839,26.047-3.714,39.089-5.5a164.155,164.155,0,0,0,32.428-7.807c1.869-.658,3.695-1.439,5.945-2.322-10.428-27.528-22.325-53.95-33.8-80.428C4379.09,810.261,4326.019,816.17,4271.656,816.191Zm-104.485-.364c-6.1,5.356-12.843,10.954-19.19,16.975a33.957,33.957,0,0,0-9.077,14.469,13.358,13.358,0,0,0-.642,6.381c1.644,7.98,5.286,14.972,11.88,20.005a137.141,137.141,0,0,0,39.406,21.452c30.774,10.357,62.744,14.463,94.907,17.318,10.424.926,20.941,1.012,31.308,2.329,25.939,3.3,51.9,2.984,77.9,1.422,19.55-1.176,39.1-2.354,58.628-3.9a232.7,232.7,0,0,0,24.414-3.518c6.115-1.148,12.024-3.389,18.136-4.571,20.078-3.882,39.754-9.389,59.26-15.34,27.063-8.257,52.521-20.4,76.829-34.851,7.678-4.563,14.738-10.158,22.3-14.929,6.808-4.295,12.187-10.15,17.946-15.583a17.121,17.121,0,0,0,3.888-6.411c2.668-7.17-2.253-22.316-8.626-26.618-7.235-4.884-15.812-5.876-23.94-8.434v7.915c1.856.272,3.371.389,4.835.728,9.314,2.153,12.8,9.166,8.26,17.6a40.471,40.471,0,0,1-7.6,9.351c-7.907,7.709-17.122,13.738-26.462,19.519-11.625,7.2-23.271,14.339-36.14,19.279a335.859,335.859,0,0,1-40.114,12.335c-9.661,2.382-19.575,3.81-29.137,6.512-25.18,7.115-50.491,13.623-76.193,18.559-19.049,3.658-38.02,7.624-57.506,8.631a483.148,483.148,0,0,1-50.632.463c-12.142-.644-24.3-.966-36.432-1.774a263.15,263.15,0,0,1-27.69-2.817c-12.788-2.23-25.356-5.71-38.131-8.034-17.668-3.214-33.8-10.44-49.762-18.153a51.446,51.446,0,0,1-10.133-6.642,33.778,33.778,0,0,1-6.727-7.495c-5.912-9.043-4.28-17.666,4.569-23.783,3.41-2.357,7.354-3.943,11.447-6.086-.138-2.7-.3-5.833-.441-8.613Zm416.913-87.487a34.462,34.462,0,0,0,2.965,2.14c1.915,1.064,3.875,2.05,5.837,3.028,13.835,6.894,28.584,11.034,43.595,14.331a7.853,7.853,0,0,0,4.918-.316,103.837,103.837,0,0,0,13.908-8.159c16.049-11.9,28.884-26.849,39.563-43.63,2.3-3.617,4.417-7.913,4.815-12.069.849-8.842,1.848-17.723.392-26.724-2.333-14.418-9.346-25.127-22.708-31.354q-6.183-2.881-12.529-5.411c-9.4-3.738-18.83-7.378-28.265-11.017a37.465,37.465,0,0,0-3.879-1.04c-.887,1.371-1.674,2.453-2.322,3.612-13.868,24.817-25.7,50.511-33.733,77.869-2.662,9.06-5.707,18.007-8.61,26.994C4586.793,720.425,4585.468,724.228,4584.084,728.34Zm-52.816,9.193c-21.72,25.126-49.885,39.292-76.847,54.259,3.467,10.908,6.814,21.518,10.214,32.11,2.009,6.256,4.012,12.518,6.2,18.711.8,2.262,1.564,4.745,4.634,6.475,8.984-15.911,16.9-32.242,29.806-45.3-2.715,6.683-5.531,13.33-8.849,19.715-5.366,10.327-11.063,20.48-16.617,30.709a5.781,5.781,0,0,0-.236,5.771c2.056,4.063,3.881,8.244,5.94,12.306,1.718,3.39,2.512,3.6,6.462,2.7,10.852-2.484,21.741-4.815,32.562-7.426q22.866-5.517,45.642-11.4c2.843-.732,5.5-2.174,8.481-3.382-1.176-3.33-2.182-5.989-3.056-8.692-2.491-7.7-4.987-15.4-7.359-23.132-1.087-3.545-1.983-7.157-2.8-10.776-1.656-7.343-4.964-13.581-11.282-18.006-2.7-1.889-3.252-4.529-2.235-7.631a54.8,54.8,0,0,0,2.356-8.267,13.845,13.845,0,0,0-.26-6.836,42.552,42.552,0,0,0-5.45-10.222C4543.224,752.078,4537.464,745.24,4531.268,737.533Zm87.182-138.642c-3.768-2.822-7.1-5.332-10.448-7.82-3.242-2.409-6.244-5.306-9.8-7.1-11.652-5.877-23.933-10.415-36.792-12.443-9.98-1.574-20.079.519-29.975,2.42-1.346.259-2.814,1.894-3.5,3.258-4.238,8.447-8.654,16.838-12.274,25.554-5.2,12.528-7.567,25.9-10.32,39.126a10.685,10.685,0,0,0,.526,5.377,91.018,91.018,0,0,0,4.417,10.749c2.486,5.017,1.661,10.623,3.182,15.764.8,2.7,1.7,5.624,3.425,7.726,2.866,3.485,6.547,6.283,9.673,9.572a27.556,27.556,0,0,1,5.1,6.765,11.611,11.611,0,0,0,5.2,5.15c8.138,4.784,16.169,9.75,24.234,14.659,2.225,1.355,4.427,2.749,7,4.348.908-2.587,1.611-4.467,2.232-6.374,5.067-15.572,10.02-31.182,15.2-46.717,7.4-22.178,16.4-43.633,29.119-63.371C4615.93,603.562,4616.994,601.455,4618.45,598.891ZM4192.307,649.9c-2.033-.25-3.365-.406-4.7-.579-6.846-.891-13.688-1.808-20.537-2.669a17.34,17.34,0,0,0-10.241,2.127,83.309,83.309,0,0,0-20.148,14.35,27.375,27.375,0,0,0,1.947,41.671c1.715,1.371,3.416,2.761,5.079,4.193a22.887,22.887,0,0,1,7.639,12.278c1.839,7.887,3.862,15.761,5.108,23.75,2.227,14.273,5.142,28.172,13.044,40.659,4.922,7.779,4.6,7.948,13.61,10.176,5.931,1.466,11.9,2.473,18.029,2.006,3.738-.284,6.686-1.72,8.619-5.23,2.359-4.283,5.036-8.392,7.639-12.536a37.742,37.742,0,0,1,2.5-3.19l.705.452c-2.663,6.292-5.327,12.583-8.125,19.194,4.956,3.672,10.1,1.784,14.935,1.75,5.133-.037,10.263-.478,15.392-.742a6.085,6.085,0,0,0-.111-1.391c-7.671-18.743-15.644-37.37-22.937-56.259-4.611-11.945-9.454-24.03-11.968-36.5C4204.094,685.082,4196.756,667.991,4192.307,649.9Zm439.825,113.135a150.92,150.92,0,0,1-52.748-19.481c-1.126,6.993-2.435,13.233-3.081,19.541-1.2,11.751-2.05,23.54-2.977,35.319-.209,2.658-.672,5.462-.093,7.987q2.769,12.077,6.3,23.975c1.662,5.6,3.883,11.037,5.988,16.919,3.445-1.613,6.448-2.754,9.186-4.349,9.181-5.352,18.244-10.906,27.406-16.291,2.471-1.453,3.778-3.542,4.921-6.108C4635.263,802.074,4635.285,782.905,4632.132,763.035Zm-437.573,64.949-.984-.7,4.645-7.7H4186a43.376,43.376,0,0,0,9.457,27.829,29.9,29.9,0,0,1,5.654,12.758c.874,4.282,2.064,8.508,3.328,12.694a5.3,5.3,0,0,0,2.259,3.088,44.171,44.171,0,0,0,14.208,4.06c10.113-13.867,19.031-28.083,31.478-39.479-8.067,13.946-14.627,28.81-26.3,41.378,18.279,3.122,35.359,8.81,54.141,10.527-10.52-25.568-20.643-50.17-30.916-75.135l-49.614,2.267C4197.717,822.259,4197.5,826.026,4194.559,827.984Zm334.27-105.672c-3.319,2.847-6.182,5.44-9.189,7.854-5.924,4.757-11.983,9.344-17.885,14.127a175.278,175.278,0,0,1-42.382,25.569c-11.194,4.72-22.5,9.175-33.816,13.6a95.84,95.84,0,0,1-20.483,5.493c-7.142,1.1-14.164,3-21.216,4.651-2.445.572-4.776,1.748-7.237,2.108-11.019,1.61-22.032,3.4-33.111,4.426-18.994,1.761-38.017,3.386-57.064,4.329-13.286.658-26.595.9-39.961.455-18.232-.608-36.439-1.01-54.6-2.918-7.181-.754-14.429-.873-22.215-1.313.8,3.026,1.428,5.421,2.187,8.3,3.771,0,7.316-.17,10.841.029,15.84.9,31.671,1.949,47.512,2.832,3.664.2,7.355.031,11.03-.081,3.7-.113,7.419-.728,11.09-.495a362.912,362.912,0,0,0,56.189-.394c19.311-1.769,38.568-4.21,57.8-6.716,14.054-1.831,28.063-4.071,42.037-6.45,11.935-2.032,23.654-4.593,34.9-9.662,16.239-7.317,31.5-16.243,46.549-25.623,12.674-7.9,24.48-16.886,34.014-28.562,1.6-1.961,3.4-3.765,4.936-5.772C4530.365,726.011,4530.723,723.838,4528.829,722.312Zm-91.1,47.922c-.8-1.744-1.305-2.8-1.771-3.883-6.5-15.035-13.694-29.816-19.338-45.167-9.028-24.553-17.162-49.441-25.4-74.276-3.825-11.527-7.184-23.218-10.441-34.922-2.352-8.451-3.918-17.124-6.322-25.558q-4.507-15.816-9.878-31.38c-1.786-5.2-3.866-5.647-9.721-3.027.46,1.681.872,3.449,1.427,5.17,2.022,6.262,4.276,12.454,6.11,18.769,7.291,25.118,14.128,50.372,21.76,75.384,7.581,24.847,15.987,49.44,23.888,74.191,4.78,14.972,10.118,29.705,17.238,43.744.753,1.486,1.556,2.946,2.524,4.775Zm-178.168,27.318c-2.474-4.908-4.984-9.278-6.948-13.882-10.949-25.659-19.958-52.039-28.031-78.71-4.691-15.5-8.233-31.352-12.19-47.071-1.724-6.852-5.4-12.712-9-18.623a4.812,4.812,0,0,0-5.733-1.791c-2.128.859-1.672,2.7-1.5,4.339a16.768,16.768,0,0,0,.713,2.947c5.957,20.24,11.82,40.509,17.923,60.705,3.562,11.788,7.085,23.616,11.376,35.147,7.007,18.827,14.626,37.427,22,56.116.114.289.424.5.71.823Zm234.692-178.98c3.445-9.333,6.348-18.262,10.023-26.86s8.13-16.889,12.307-25.445c-9.5-11.159-22.773-11.125-36.065-10.992.246,3.8.7,7.159.617,10.509a86.181,86.181,0,0,1-1.081,10.53c-.953,6.41-1.769,12.995,1.127,18.92C4485.066,603.193,4489.808,610.736,4494.248,618.572Zm134.036-27.409c-1.2,1.807-2.387,3.41-3.385,5.124-3.227,5.543-6.207,11.237-9.6,16.673a222.066,222.066,0,0,0-21.377,45.218c-6.235,18.009-11.924,36.206-18.185,54.205a237.937,237.937,0,0,0-11.087,46.17c-1.228,9-.908,18.236-4.1,26.942-.095.259.128.635.232,1.077l8.009,7.8c.159-5.228.345-9.239.391-13.251.165-14.587,1.7-29.015,5.888-43.01,6.194-20.68,12.685-41.27,19.112-61.879,1.556-4.991,3.216-9.958,5.062-14.847a390.378,390.378,0,0,1,25.043-53.055,116.9,116.9,0,0,0,5.5-10.816C4630.59,595.65,4631.613,593.3,4628.284,591.163ZM4437.478,798.424a16.149,16.149,0,0,0,.465,1.692q10.313,25.026,20.653,50.038c3.55,8.55,6.344,17.423,11.221,25.411,2.5,4.1,7.16,5.495,10.958,2.6.656-.5.867-2.026.73-3-.128-.915-.98-1.732-1.528-2.583a127.647,127.647,0,0,1-15.947-35.4c-3.891-14.2-9.627-27.7-14.508-41.525a9.445,9.445,0,0,0-1.538-2.091Zm-181.512,18.593c9.9,25.675,19.528,50.664,29.28,75.964l7.593.382c-10.789-25.253-20.908-50.189-27.636-76.346Zm-75.819,17.234c-1.1.61-1.847.952-2.518,1.4-1.817,1.225-3.671,2.409-5.389,3.764-6.333,5-7.028,9.732-2.032,16.021,6.545,8.24,15.953,11.772,25.886,15.7-1.218-5-2.154-9.221-3.317-13.384a9.471,9.471,0,0,0-2.119-3.966C4185.432,848.434,4182.791,841.712,4180.147,834.251Zm358.266-111.515c-1.007,4.036-1.808,7.249-2.542,10.19l24.594,26.069c1.3-7.845,2.512-15.192,3.791-22.932Zm110.747,31.1c-23.849-2.247-46.016-8.519-66.3-20.91-.369,1.046-.7,1.823-.913,2.63-.25.939-.4,1.9-.652,3.143,21.125,12.17,42.912,21,67.864,19.393ZM4503.1,636.237c.593-3.314,1.151-6.635,1.784-9.941,3.463-18.087,10.533-34.8,19.354-50.848.569-1.035,1.149-2.064,1.721-3.1.752-1.357.715-2.62-.634-3.556-1.475-1.024-2.512-.26-3.351,1.005s-1.717,2.506-2.5,3.8a162.637,162.637,0,0,0-19.764,49.556C4498.576,628.243,4500.311,632.223,4503.1,636.237Zm26.5,76.191c6.058,3.266,11.809,6.417,17.606,9.479,5.9,3.119,11.856,6.15,18.26,9.465.53-2.133,1-4.005,1.391-5.6-6.2-3.382-12.009-6.4-17.67-9.688-5.76-3.342-11.37-6.943-17.356-10.621C4531.007,708.032,4530.4,709.935,4529.6,712.428Zm108.415,101.19c5.228-3.2,10.12-6.23,10.993-12.5a7.164,7.164,0,0,0-7.319-2.165C4640.418,804.023,4639.216,808.82,4638.014,813.618Z" transform="translate(-172.707 -127.636)" fill="#332f2c"/>
    <path id="Path_252" data-name="Path 252" d="M4396.99,482.423a77.813,77.813,0,0,0-4.9-35.908c-4.987-12.578-13.242-22.7-23.213-31.524-10.907-9.65-21.381-19.721-30.376-31.194-6.775-8.641-13.569-17.43-15.812-28.546a75.135,75.135,0,0,1-1.6-15.537c.178-16.342,2.739-32.186,9.72-47.249,5.889-12.706,11.135-25.721,16.308-38.742a117.082,117.082,0,0,0,6.254-19.742c2.9-14.314.08-26.92-12.958-35.614a14.233,14.233,0,0,1-3.977-3.7c1.508.2,3.038.295,4.522.609,11.705,2.479,21.731,8.473,30.747,15.929a89.8,89.8,0,0,1,22.946,29.35c4.843,9.65,5.474,19.817,3.748,30.138a115.481,115.481,0,0,1-8.179,27.617,161.217,161.217,0,0,0-9.013,27.375c-3.672,15.231-1.514,29.4,5.842,43.107,5.588,10.411,10.957,20.958,15.933,31.673a105.482,105.482,0,0,1,6.36,18.091c3.525,13.7,2.8,27.46-.713,41.1a2.768,2.768,0,0,1-1.86,1.944,29.391,29.391,0,0,1,.484-4.745c5.681-21.439-.3-40.755-10.855-59.161-4.116-7.176-8.806-14.019-13.048-21.126A65.327,65.327,0,0,1,4374,336.268c.824-8.671,3.009-17.3,5.4-25.71,2.575-9.08,5.984-17.932,9.237-26.807,5.388-14.7,5.664-28.828-.61-43.784a73.873,73.873,0,0,0-26.858-33.348c-1.891-1.305-3.977-2.326-6.194-3.6,1.571,4.666,3.415,8.771,4.3,13.073a45.315,45.315,0,0,1-2.576,25.891c-3.913,10.067-7.931,20.107-12.314,29.976a224.381,224.381,0,0,0-16.115,51.584c-3.489,19.4.473,36.733,11.728,52.848,9.476,13.57,21.087,25.052,33.154,36.166a81.747,81.747,0,0,1,23.082,35.78c2.866,8.983,4.053,18.121,2.56,27.485A60.3,60.3,0,0,1,4396.99,482.423Z" transform="translate(-172.707 -127.636)" fill="#332f2c"/>
    <path id="Path_253" data-name="Path 253" d="M4541.118,229.477c-6.328-1.665-11.275-.538-16.167.583a78.269,78.269,0,0,0-39.206,21.921c-19.619,19.946-30.807,43.6-33.4,71.475a124.34,124.34,0,0,0,1.517,31.8,59.323,59.323,0,0,0,4.728,14.371c6.122,13.644,14.8,25.751,23.492,37.822,3.852,5.345,7.742,10.666,11.445,16.113a51.245,51.245,0,0,1,8.063,19.535c1.587,8.446,4.266,16.733,3.7,25.49-.591,9.084-3.9,17.265-7.8,25.245l-1.089-.29c.414-1.651.859-3.294,1.238-4.953,3.313-14.53,4.312-29.076-.026-43.586-3.24-10.834-9.344-20.181-15.606-29.424-7.487-11.05-15.08-22.029-22.47-33.144a130.9,130.9,0,0,1-6.8-11.857c-5.474-10.462-7.01-21.81-6.876-33.409a137.311,137.311,0,0,1,6.087-40.428c4.385-13.774,11.635-25.849,20.467-37.042a149.947,149.947,0,0,1,14.539-16.18c9.131-8.628,20.381-13.754,32.215-17.535a35.711,35.711,0,0,1,9.477-1.414c6.41-.234,12.834-.171,19.251-.119a59.99,59.99,0,0,1,6.313.81c-5.577,3.949-10.272,6.929-14.576,10.4-8.148,6.562-16.452,13-24.009,20.212-15.886,15.151-23.22,34.492-25.625,55.935-2.237,19.935,2.753,38.589,10.648,56.6,3.113,7.1,6.876,13.927,10.521,20.784,7.664,14.416,11.466,29.785,12.556,46.053a89.6,89.6,0,0,1-1.427,25.206c-2.661,12.147-7.45,23.55-17.014,32.178a67.731,67.731,0,0,1-6.835,4.832l-.662-.768c2.672-3.281,5.178-6.715,8.048-9.812a45.08,45.08,0,0,0,12.14-27.8c1.011-12.806,2.125-25.767-.554-38.393-1.839-8.672-5.194-17.107-8.623-25.334-3.437-8.246-7.679-16.168-11.791-24.116-10.5-20.3-12.8-41.8-9.289-64.074a140.75,140.75,0,0,1,5.043-22.682c7.617-22.814,22.965-39.432,43.177-51.873C4537.353,231.733,4538.779,230.888,4541.118,229.477Z" transform="translate(-172.707 -127.636)" fill="#332f2c"/>
    <path id="Path_254" data-name="Path 254" d="M4621.685,417.851c.286-2.332.358-3.836.667-5.29,1.71-8.066.421-15.84-2.556-23.332a14.835,14.835,0,0,0-11.006-9.545c-11.185-2.481-18.051.182-24.413,9.586-5.281,7.808-4.994,18.668.72,26.675a24.366,24.366,0,0,0,1.886,2.383c7.869,8.526,10.411,19.082,11.5,30.188a9.709,9.709,0,0,1-.045,3.031c-2.026,8.914-4.466,17.792-9.046,25.7a92.454,92.454,0,0,1-18.744,22.5,23.4,23.4,0,0,1-5.908,3.819c-1.344.6-3.08.326-5.887.538,2.043-3.226,3.448-5.426,4.834-7.637,5.057-8.066,9.252-16.576,10.957-25.971a103.007,103.007,0,0,0,1.454-18.132c.018-10.8-5.781-19.17-12.4-27.031-4.136-4.909-8.41-9.7-12.559-14.6-8.451-9.977-11.507-21.712-10.336-34.477.706-7.685,3.985-14.657,8.494-20.894,9.088-12.57,21.78-19.56,36.743-22.274,11.375-2.064,22.789-2.16,33.95,2,15.11,5.629,24.109,15.958,26.425,32.175a45.9,45.9,0,0,1-.775,18.047,71.41,71.41,0,0,1-9.277,20.7C4632.993,411.335,4628.191,414.834,4621.685,417.851Zm5.688-9.2c5.536-3.958,9.655-8.885,11.8-15.362,2.994-9.054,2.925-18.243,1.616-27.554-1.523-10.842-7.482-18.136-17.293-22.653-8.689-4-17.728-6.908-27.286-6.933-24.262-.064-40.026,9.3-47.055,31.92-.5,1.611-.95,3.243-1.3,4.891-2.7,12.566-1.065,24.19,7.54,34.27,2.632,3.083,5.344,6.1,7.9,9.244a142.228,142.228,0,0,1,9.029,11.579c9.964,15.217,10.947,31.717,5.25,48.49-2.244,6.6-6.566,12.505-9.99,18.7-1.022,1.848-2.209,3.6-3.855,6.263a12.429,12.429,0,0,0,2.131-1.13c11.743-12.018,20.932-25.674,25.541-41.964,3.653-12.909.763-24.732-7.418-35.3-1.242-1.6-2.483-3.205-3.707-4.821-10.109-13.35-5.86-27.341,1.733-36.313,4.556-5.384,10.439-9.019,17.674-8.213a69.355,69.355,0,0,1,16.6,4.091c6.775,2.554,10.527,8.031,12.089,15.164C4629.527,398.336,4628.738,403.372,4627.373,408.65Z" transform="translate(-172.707 -127.636)" fill="#332f2c"/>
    <path id="Path_255" data-name="Path 255" d="M4243.285,532.084c-14.677-7.417-20.725-20.558-23.719-35.406-2.6-12.887-1.677-25.572,4.424-37.543,4.75-9.321,9.631-18.58,14.165-28.006a129.716,129.716,0,0,0,11.282-33.494,22.91,22.91,0,0,0,.458-3.514c.229-11.461-3.924-15.442-15.833-15-13.755.505-21.229,11.778-17.92,25.257a7.064,7.064,0,0,1-.092,1.5c-1.064-.411-2.256-.536-2.909-1.2a13.324,13.324,0,0,1-2.946-4.066c-5.85-14.167-7.943-28.578-2.44-43.4a25.508,25.508,0,0,1,6.7-10.013c10.742-9.93,23.3-15.1,37.953-13.014a45.053,45.053,0,0,1,21.3,8.866c16.357,12.67,23.829,30.184,26.6,50.115a15.271,15.271,0,0,1-.339,5.021,81.552,81.552,0,0,1-8.331,23.822c-6.994,12.527-13.158,25.514-21.522,37.278-10.161,14.292-14.69,30.637-16.215,47.912a96,96,0,0,0-.5,12.645c.186,4.174,1.037,8.319,1.723,13.415a46.4,46.4,0,0,1-6.292-19.148c-1.377-10.817.705-21.2,4.529-31.287a173.293,173.293,0,0,1,15.574-30.683c5.033-8.014,10.088-16.02,14.884-24.176,4.9-8.326,8.933-17.047,10.888-26.615a46.034,46.034,0,0,0-.111-19.61,64.9,64.9,0,0,0-14.441-28.689c-16.608-19.087-42.656-18.311-59.731-4.631a25.042,25.042,0,0,0-8.23,11.931,42.425,42.425,0,0,0-.539,24.936c1.951-1.5,3.591-2.619,5.073-3.919,7.02-6.161,14.814-8.956,24.289-6.794,9.07,2.07,14.795,9.668,13.812,17.334-.555,4.331-.947,8.824-2.432,12.869-6.573,17.907-13.761,35.565-23.024,52.3A46.9,46.9,0,0,0,4224.049,477c-.846,13.485.516,26.753,7.7,38.682,2.78,4.62,6.039,8.953,9.117,13.391C4241.6,530.128,4242.474,531.083,4243.285,532.084Z" transform="translate(-172.707 -127.636)" fill="#332f2c"/>
    <path id="Path_256" data-name="Path 256" d="M4373.408,788.012c9.28-9.139,14.267-20.4,18.425-32.938a9.75,9.75,0,0,0-1.768,1.3c-7.251,10.178-14.589,20.3-21.624,30.624a7.393,7.393,0,0,1-5.818,3.295c-6.533.807-13.081,1.495-19.622,2.237-23.5,2.667-47.085,4.158-70.726,4.874-2.65.081-4.126-.727-5.14-2.972-3.333-7.381-7.111-14.592-9.964-22.153-15.26-40.444-29.775-81.137-40.1-123.2-1.231-5.013-3.446-9.783-5.292-14.907,18.074-23.422,38.936-44.462,67.089-57.022,10.582-4.72,21.666-7.473,32.936-9.687,6.116-1.2,12.24-2.5,18.424-3.177,4.316-.474,8.74-.014,13.113.1,2.492.068,4.979.288,7.919.466a20.543,20.543,0,0,1,1.272,2.774c2.148,6.931,4.312,13.86,6.331,20.829,7.516,25.939,14.866,51.927,22.562,77.812,1.414,4.754,1.185,8.9-1.164,13.049-4.238,7.486-8.022,15.3-12.92,22.328-16.225,23.286-32.768,46.352-49.4,69.348-4.546,6.284-9.858,12.013-14.777,18.031-1.1,1.347-2.025,2.837-3.031,4.26l1,.957a54.133,54.133,0,0,0,4.442-3.489,354.5,354.5,0,0,0,41.9-48.1c6.527-9.041,12.877-18.209,19.314-27.315a12.274,12.274,0,0,1,2.139-2.809c3.292-2.53,4.6-6.125,5.747-9.875,2.663-8.7,5.373-17.388,8.153-26.368.7.572,1.266.795,1.354,1.139,4.077,15.94,11.172,30.757,17.039,46.03,4.6,11.975,9.194,23.954,13.635,35.989,2.033,5.509,3.694,11.155,5.719,17.337C4405.357,782.661,4389.4,784.924,4373.408,788.012ZM4354.156,632.86c-.628.384-1.145.538-1.407.884-6.313,8.343-12.563,16.734-18.9,25.061-18.7,24.588-36.815,49.626-57.216,72.9-5.76,6.569-10.471,14.063-15.6,21.176a24.268,24.268,0,0,0-1.788,3.561l.871.5c10.519-10.937,21.39-21.559,31.48-32.879,18.665-20.941,35.49-43.394,51.653-66.286,4.779-6.767,7.348-15.1,10.874-22.744A6.19,6.19,0,0,0,4354.156,632.86ZM4239.041,698.8l.956.814a32.63,32.63,0,0,0,3.947-3c7.068-7.235,14.6-14.1,20.978-21.909,21.8-26.673,42.3-54.316,60.023-83.924a10.038,10.038,0,0,0,.62-1.664C4293.943,623.705,4267.01,661.657,4239.041,698.8Z" transform="translate(-172.707 -127.636)" fill="url(#linear-gradient-5)"/>
    <path id="Path_257" data-name="Path 257" d="M4448.436,765.424c5.334-6.058,10.134-11.472,14.888-16.926,2.332-2.674,4.454-5.541,6.885-8.118,12.614-13.374,18.329-30,22.322-47.527-13.3,25.77-33.214,46.873-49.6,71.356-6.149-14.181-12.084-27.87-18.163-41.892,22.79-23.507,40.929-50.056,52.139-81.125L4423.457,717.1c-5.343-9.209-33.967-97.139-36.683-112.4,13.406-12.375,23.161-27.68,33.03-42.906-12.32,12.306-23.817,25.284-33.184,41.16-3.96-14.272-7.623-27.478-11.307-40.756,13.533-8.012,26.826-15.6,42-19.206a46.148,46.148,0,0,1,18.582-.614,41.414,41.414,0,0,0,15.088-.068c9.11-1.8,13.3.413,17.771,8.528,4.044,7.335,4.563,15.066,2.956,23.093-2.5,12.488-.8,24.077,6.562,34.8a127.245,127.245,0,0,1,16.826,34.478c2.742,8.859,5.866,17.6,8.671,26.438.761,2.4.92,4.977,1.461,7.449,1.367,6.25,4.533,11.212,10.335,14.271A19.9,19.9,0,0,1,4519.87,694a6.687,6.687,0,0,1,2.281,3.7c.708,7.576-1.426,14.685-4.133,21.644a4.6,4.6,0,0,1-1.318,1.488c-14.825,13.375-29.994,26.3-47.885,35.522-5.4,2.781-10.948,5.267-16.453,7.836A35.966,35.966,0,0,1,4448.436,765.424Zm-41.307-109.686.932.634c13.66-8.163,39.285-42.969,42.226-57.7-4.319,5.721-8.312,11.143-12.444,16.457-8.716,11.209-17.539,22.334-26.231,33.562C4409.914,650.88,4408.613,653.38,4407.129,655.738Z" transform="translate(-172.707 -127.636)" fill="url(#linear-gradient-5)"/>
    <path id="Path_258" data-name="Path 258" d="M4271.656,816.191c54.363-.021,107.434-5.93,160.405-16.2,11.471,26.478,23.368,52.9,33.8,80.428-2.25.883-4.076,1.664-5.945,2.322a164.155,164.155,0,0,1-32.428,7.807c-13.042,1.782-26,4.657-39.089,5.5-15.987,1.024-32.079.637-48.121.453-10.636-.122-21.265-.913-31.892-1.5-2.5-.139-4.981-.674-6.809-.933-3.411-7.474-6.3-14.488-9.744-21.212-8.53-16.628-14-34.36-19.32-52.161C4272.181,819.589,4272.072,818.428,4271.656,816.191ZM4412.881,827l-.721-.906a31.691,31.691,0,0,0-4.8,3.126,48.13,48.13,0,0,0-4.992,5.728,624.018,624.018,0,0,1-42.921,49.336,12.009,12.009,0,0,0-1.271,2.141c3.608-.45,3.608-.45,10.063-5.691C4384.317,867.681,4409.185,837.75,4412.881,827ZM4307.443,876.44c13.351-6.155,43.176-35.4,45.279-42.928-4.76-1.039-8.271.587-11.491,4.311-10.031,11.6-20.36,22.933-30.544,34.4C4309.511,873.543,4308.52,875.029,4307.443,876.44Z" transform="translate(-172.707 -127.636)" fill="url(#linear-gradient-5)"/>
    <path id="Path_259" data-name="Path 259" d="M4584.084,728.34c1.384-4.112,2.709-7.915,3.947-11.746,2.9-8.987,5.948-17.934,8.61-26.994,8.037-27.358,19.865-53.052,33.733-77.869.648-1.159,1.435-2.241,2.322-3.612a37.465,37.465,0,0,1,3.879,1.04c9.435,3.639,18.869,7.279,28.265,11.017q6.338,2.523,12.529,5.411c13.362,6.227,20.375,16.936,22.708,31.354,1.456,9,.457,17.882-.392,26.724-.4,4.156-2.513,8.452-4.815,12.069-10.679,16.781-23.514,31.728-39.563,43.63a103.837,103.837,0,0,1-13.908,8.159,7.853,7.853,0,0,1-4.918.316c-15.011-3.3-29.76-7.437-43.595-14.331-1.962-.978-3.922-1.964-5.837-3.028A34.462,34.462,0,0,1,4584.084,728.34Zm87.643-52.1c-12.2,5.224-23.523,10.295-35.022,14.931-11.412,4.6-23,8.763-34.514,13.118a29.822,29.822,0,0,0,10.434.641c14.587-2.309,28.379-7.218,41.656-13.59C4661.211,688.019,4666.231,682.452,4671.727,676.244Zm-54.182-17.361a51.6,51.6,0,0,0,37.078-16.854C4642.438,648.011,4629.344,651.968,4617.545,658.883Z" transform="translate(-172.707 -127.636)" fill="url(#linear-gradient-5)"/>
    <path id="Path_260" data-name="Path 260" d="M4531.268,737.533c6.2,7.707,11.956,14.545,17.31,21.689a42.552,42.552,0,0,1,5.45,10.222,13.845,13.845,0,0,1,.26,6.836,54.8,54.8,0,0,1-2.356,8.267c-1.017,3.1-.462,5.742,2.235,7.631,6.318,4.425,9.626,10.663,11.282,18.006.817,3.619,1.713,7.231,2.8,10.776,2.372,7.736,4.868,15.434,7.359,23.132.874,2.7,1.88,5.362,3.056,8.692-2.978,1.208-5.638,2.65-8.481,3.382q-22.781,5.86-45.642,11.4c-10.821,2.611-21.71,4.942-32.562,7.426-3.95.9-4.744.689-6.462-2.7-2.059-4.062-3.884-8.243-5.94-12.306a5.781,5.781,0,0,1,.236-5.771c5.554-10.229,11.251-20.382,16.617-30.709,3.318-6.385,6.134-13.032,8.849-19.715-12.9,13.058-20.822,29.389-29.806,45.3-3.07-1.73-3.834-4.213-4.634-6.475-2.192-6.193-4.195-12.455-6.2-18.711-3.4-10.592-6.747-21.2-10.214-32.11C4481.383,776.825,4509.548,762.659,4531.268,737.533Zm-6.53,119.971c4.441.38,7.805-.688,9.811-5.169,4.365-9.749,6.6-20.1,9.259-30.336C4539.078,828.1,4525.8,853.082,4524.738,857.5Z" transform="translate(-172.707 -127.636)" fill="url(#linear-gradient-5)"/>
    <path id="Path_261" data-name="Path 261" d="M4618.45,598.891c-1.456,2.564-2.52,4.671-3.792,6.644-12.722,19.738-21.724,41.193-29.119,63.371-5.18,15.535-10.133,31.145-15.2,46.717-.621,1.907-1.324,3.787-2.232,6.374-2.572-1.6-4.774-2.993-7-4.348-8.065-4.909-16.1-9.875-24.234-14.659a11.611,11.611,0,0,1-5.2-5.15,27.556,27.556,0,0,0-5.1-6.765c-3.126-3.289-6.807-6.087-9.673-9.572-1.729-2.1-2.627-5.029-3.425-7.726-1.521-5.141-.7-10.747-3.182-15.764a91.018,91.018,0,0,1-4.417-10.749,10.685,10.685,0,0,1-.526-5.377c2.753-13.222,5.117-26.6,10.32-39.126,3.62-8.716,8.036-17.107,12.274-25.554.684-1.364,2.152-3,3.5-3.258,9.9-1.9,20-3.994,29.975-2.42,12.859,2.028,25.14,6.566,36.792,12.443,3.554,1.793,6.556,4.69,9.8,7.1C4611.35,593.559,4614.682,596.069,4618.45,598.891Zm-22.7,11.168c-6.962,3.793-13.625,7.338-20.207,11.027a198.494,198.494,0,0,1-32.328,14.172c-3.179,1.1-6.352,2.227-9.478,3.466a22.3,22.3,0,0,0-3.4,2.337c4.454,1.333,7.853.491,11.212-.207,13.459-2.8,26.051-7.919,38.133-14.384C4586.737,622.7,4591.467,616.7,4595.751,610.059Zm-15.884-23.426a7.672,7.672,0,0,0-1.511.443c-5.549,3.155-11,6.5-16.645,9.462-7.293,3.823-14.758,7.315-22.114,11.019-1.2.6-3.13.837-2.518,3.042C4551.554,611.687,4568.1,602.351,4579.867,586.633Zm-43.641,73.179c.074.315.146.63.22.946a24.9,24.9,0,0,0,3.4-.62c8.5-2.763,16.976-5.582,25.461-8.381,8.35-2.754,15.273-7.827,21.813-13.5a18.662,18.662,0,0,0,2-2.414l-.5-.573Zm10.293,17.727c10.04,1.245,18.469-1.4,26.383-6.19,2.168-1.311,2.75-3.539,3.257-5.928C4566.387,666.561,4549.16,673.358,4546.519,677.539Z" transform="translate(-172.707 -127.636)" fill="url(#linear-gradient-5)"/>
    <path id="Path_262" data-name="Path 262" d="M4192.307,649.9c4.449,18.091,11.787,35.182,15.482,53.508,2.514,12.472,7.357,24.557,11.968,36.5,7.293,18.889,15.266,37.516,22.937,56.259a6.085,6.085,0,0,1,.111,1.391c-5.129.264-10.259.705-15.392.742-4.834.034-9.979,1.922-14.935-1.75,2.8-6.611,5.462-12.9,8.125-19.194l-.705-.452a37.742,37.742,0,0,0-2.5,3.19c-2.6,4.144-5.28,8.253-7.639,12.536-1.933,3.51-4.881,4.946-8.619,5.23-6.132.467-12.1-.54-18.029-2.006-9.011-2.228-8.688-2.4-13.61-10.176-7.9-12.487-10.817-26.386-13.044-40.659-1.246-7.989-3.269-15.863-5.108-23.75a22.887,22.887,0,0,0-7.639-12.278c-1.663-1.432-3.364-2.822-5.079-4.193a27.375,27.375,0,0,1-1.947-41.671,83.309,83.309,0,0,1,20.148-14.35,17.34,17.34,0,0,1,10.241-2.127c6.849.861,13.691,1.778,20.537,2.669C4188.942,649.494,4190.274,649.65,4192.307,649.9Zm-.886,77.353-1.256-.228c-8.121,11.23-18.524,20.948-22.865,34.692a80.732,80.732,0,0,0,24.071-31.333C4191.753,729.5,4191.421,728.3,4191.421,727.253Z" transform="translate(-172.707 -127.636)" fill="url(#linear-gradient-5)"/>
    <path id="Path_263" data-name="Path 263" d="M4632.132,763.035c3.153,19.87,3.131,39.039-5.1,57.512-1.143,2.566-2.45,4.655-4.921,6.108-9.162,5.385-18.225,10.939-27.406,16.291-2.738,1.6-5.741,2.736-9.186,4.349-2.1-5.882-4.326-11.318-5.988-16.919q-3.524-11.88-6.3-23.975c-.579-2.525-.116-5.329.093-7.987.927-11.779,1.774-23.568,2.977-35.319.646-6.308,1.955-12.548,3.081-19.541A150.92,150.92,0,0,0,4632.132,763.035Zm-18.049,40.371c-6.611,2.907-12.648,5.667-18.773,8.219-3.875,1.615-7.909,2.846-11.812,4.4-1.419.566-3.346.96-3.073,3.808C4594.641,820.644,4604.85,813.732,4614.083,803.406Zm-.842-23.939c-10.947,5.418-23.372,7.267-33.855,13.843C4592.81,794.063,4603.354,787.593,4613.241,779.467Z" transform="translate(-172.707 -127.636)" fill="url(#linear-gradient-5)"/>
    <path id="Path_264" data-name="Path 264" d="M4194.559,827.984c2.939-1.958,3.158-5.725,5.136-8.408l49.614-2.267c10.273,24.965,20.4,49.567,30.916,75.135-18.782-1.717-35.862-7.4-54.141-10.527,11.676-12.568,18.236-27.432,26.3-41.378-12.447,11.4-21.365,25.612-31.478,39.479a44.171,44.171,0,0,1-14.208-4.06,5.3,5.3,0,0,1-2.259-3.088c-1.264-4.186-2.454-8.412-3.328-12.694a29.9,29.9,0,0,0-5.654-12.758A43.376,43.376,0,0,1,4186,819.589h12.217l-4.645,7.7Z" transform="translate(-172.707 -127.636)" fill="url(#linear-gradient-5)"/>
    <path id="Path_265" data-name="Path 265" d="M4528.829,722.312c1.894,1.526,1.536,3.7-.069,5.8-1.536,2.007-3.335,3.811-4.936,5.772-9.534,11.676-21.34,20.662-34.014,28.562-15.047,9.38-30.31,18.306-46.549,25.623-11.248,5.069-22.967,7.63-34.9,9.662-13.974,2.379-27.983,4.619-42.037,6.45-19.234,2.506-38.491,4.947-57.8,6.716a362.912,362.912,0,0,1-56.189.394c-3.671-.233-7.39.382-11.09.495-3.675.112-7.366.286-11.03.081-15.841-.883-31.672-1.933-47.512-2.832-3.525-.2-7.07-.029-10.841-.029-.759-2.884-1.39-5.279-2.187-8.3,7.786.44,15.034.559,22.215,1.313,18.16,1.908,36.367,2.31,54.6,2.918,13.366.445,26.675.2,39.961-.455,19.047-.943,38.07-2.568,57.064-4.329,11.079-1.027,22.092-2.816,33.111-4.426,2.461-.36,4.792-1.536,7.237-2.108,7.052-1.648,14.074-3.552,21.216-4.651a95.84,95.84,0,0,0,20.483-5.493c11.314-4.43,22.622-8.885,33.816-13.6a175.278,175.278,0,0,0,42.382-25.569c5.9-4.783,11.961-9.37,17.885-14.127C4522.647,727.752,4525.51,725.159,4528.829,722.312Z" transform="translate(-172.707 -127.636)" fill="url(#linear-gradient-14)"/>
    <path id="Path_266" data-name="Path 266" d="M4437.724,770.234l-9.928,3.82c-.968-1.829-1.771-3.289-2.524-4.775-7.12-14.039-12.458-28.772-17.238-43.744-7.9-24.751-16.307-49.344-23.888-74.191-7.632-25.012-14.469-50.266-21.76-75.384-1.834-6.315-4.088-12.507-6.11-18.769-.555-1.721-.967-3.489-1.427-5.17,5.855-2.62,7.935-2.175,9.721,3.027q5.339,15.555,9.878,31.38c2.4,8.434,3.97,17.107,6.322,25.558,3.257,11.7,6.616,23.395,10.441,34.922,8.242,24.835,16.376,49.723,25.4,74.276,5.644,15.351,12.836,30.132,19.338,45.167C4436.419,767.429,4436.927,768.49,4437.724,770.234Z" transform="translate(-172.707 -127.636)" fill="url(#linear-gradient-14)"/>
    <path id="Path_267" data-name="Path 267" d="M4259.556,797.552h-10.677c-.286-.323-.6-.534-.71-.823-7.376-18.689-15-37.289-22-56.116-4.291-11.531-7.814-23.359-11.376-35.147-6.1-20.2-11.966-40.465-17.923-60.705a16.768,16.768,0,0,1-.713-2.947c-.17-1.644-.626-3.48,1.5-4.339a4.812,4.812,0,0,1,5.733,1.791c3.6,5.911,7.273,11.771,9,18.623,3.957,15.719,7.5,31.571,12.19,47.071,8.073,26.671,17.082,53.051,28.031,78.71C4254.572,788.274,4257.082,792.644,4259.556,797.552Z" transform="translate(-172.707 -127.636)" fill="url(#linear-gradient-14)"/>
    <path id="Path_268" data-name="Path 268" d="M4494.248,618.572c-4.44-7.836-9.182-15.379-13.072-23.338-2.9-5.925-2.08-12.51-1.127-18.92a86.181,86.181,0,0,0,1.081-10.53c.081-3.35-.371-6.713-.617-10.509,13.292-.133,26.561-.167,36.065,10.992-4.177,8.556-8.627,16.836-12.307,25.445S4497.693,609.239,4494.248,618.572Zm-13.966-30.826c4.517.844,10.488-2.744,14.207-8.235C4489.989,582.264,4484.492,583.357,4480.282,587.746Z" transform="translate(-172.707 -127.636)" fill="url(#linear-gradient-5)"/>
    <path id="Path_269" data-name="Path 269" d="M4628.284,591.163c3.329,2.139,2.306,4.487,1.5,6.351a116.9,116.9,0,0,1-5.5,10.816,390.378,390.378,0,0,0-25.043,53.055c-1.846,4.889-3.506,9.856-5.062,14.847-6.427,20.609-12.918,41.2-19.112,61.879-4.192,13.995-5.723,28.423-5.888,43.01-.046,4.012-.232,8.023-.391,13.251l-8.009-7.8c-.1-.442-.327-.818-.232-1.077,3.193-8.706,2.873-17.94,4.1-26.942a237.937,237.937,0,0,1,11.087-46.17c6.261-18,11.95-36.2,18.185-54.205A222.066,222.066,0,0,1,4615.3,612.96c3.4-5.436,6.376-11.13,9.6-16.673C4625.9,594.573,4627.083,592.97,4628.284,591.163Z" transform="translate(-172.707 -127.636)" fill="url(#linear-gradient-18)"/>
    <path id="Path_270" data-name="Path 270" d="M4437.478,798.424l10.506-4.863a9.445,9.445,0,0,1,1.538,2.091c4.881,13.823,10.617,27.326,14.508,41.525a127.647,127.647,0,0,0,15.947,35.4c.548.851,1.4,1.668,1.528,2.583.137.974-.074,2.5-.73,3-3.8,2.9-8.455,1.5-10.958-2.6-4.877-7.988-7.671-16.861-11.221-25.411q-10.382-25-20.653-50.038A16.149,16.149,0,0,1,4437.478,798.424Z" transform="translate(-172.707 -127.636)" fill="url(#linear-gradient-14)"/>
    <path id="Path_271" data-name="Path 271" d="M4255.966,817.017h9.237c6.728,26.157,16.847,51.093,27.636,76.346l-7.593-.382C4275.494,867.681,4265.862,842.692,4255.966,817.017Z" transform="translate(-172.707 -127.636)" fill="url(#linear-gradient-14)"/>
    <path id="Path_272" data-name="Path 272" d="M4180.147,834.251c2.644,7.461,5.285,14.183,10.511,19.541a9.471,9.471,0,0,1,2.119,3.966c1.163,4.163,2.1,8.389,3.317,13.384-9.933-3.93-19.341-7.462-25.886-15.7-5-6.289-4.3-11.025,2.032-16.021,1.718-1.355,3.572-2.539,5.389-3.764C4178.3,835.2,4179.044,834.861,4180.147,834.251Z" transform="translate(-172.707 -127.636)" fill="#332f2c"/>
    <path id="Path_273" data-name="Path 273" d="M4538.413,722.736l25.843,13.327c-1.279,7.74-2.494,15.087-3.791,22.932l-24.594-26.069C4536.6,729.985,4537.406,726.772,4538.413,722.736Z" transform="translate(-172.707 -127.636)" fill="url(#linear-gradient-5)"/>
    <path id="Path_274" data-name="Path 274" d="M4649.16,753.835v4.256c-24.952,1.61-46.739-7.223-67.864-19.393.252-1.239.4-2.2.652-3.143.215-.807.544-1.584.913-2.63C4603.144,745.316,4625.311,751.588,4649.16,753.835Z" transform="translate(-172.707 -127.636)" fill="url(#linear-gradient-18)"/>
    <path id="Path_275" data-name="Path 275" d="M4503.1,636.237c-2.79-4.014-4.525-7.994-3.4-13.078A162.637,162.637,0,0,1,4519.47,573.6c.788-1.3,1.666-2.538,2.5-3.8s1.876-2.029,3.351-1.005c1.349.936,1.386,2.2.634,3.556-.572,1.033-1.152,2.062-1.721,3.1-8.821,16.046-15.891,32.761-19.354,50.848C4504.252,629.6,4503.694,632.923,4503.1,636.237Z" transform="translate(-172.707 -127.636)" fill="url(#linear-gradient-18)"/>
    <path id="Path_276" data-name="Path 276" d="M4529.6,712.428c.8-2.493,1.408-4.4,2.231-6.966,5.986,3.678,11.6,7.279,17.356,10.621,5.661,3.284,11.474,6.306,17.67,9.688-.4,1.6-.861,3.468-1.391,5.6-6.4-3.315-12.355-6.346-18.26-9.465C4541.408,718.845,4535.657,715.694,4529.6,712.428Z" transform="translate(-172.707 -127.636)" fill="url(#linear-gradient-18)"/>
    <path id="Path_277" data-name="Path 277" d="M4638.014,813.618c1.2-4.8,2.4-9.595,3.674-14.668a7.164,7.164,0,0,1,7.319,2.165C4648.134,807.388,4643.242,810.414,4638.014,813.618Z" transform="translate(-172.707 -127.636)" fill="#332f2c"/>
    <path id="Path_278" data-name="Path 278" d="M4354.156,632.86a6.19,6.19,0,0,1-.032,2.167c-3.526,7.642-6.1,15.977-10.874,22.744-16.163,22.892-32.988,45.345-51.653,66.286-10.09,11.32-20.961,21.942-31.48,32.879l-.871-.5a24.268,24.268,0,0,1,1.788-3.561c5.132-7.113,9.843-14.607,15.6-21.176,20.4-23.269,38.516-48.307,57.216-72.9,6.333-8.327,12.583-16.718,18.9-25.061C4353.011,633.4,4353.528,633.244,4354.156,632.86Z" transform="translate(-172.707 -127.636)" fill="#332f2c"/>
    <path id="Path_279" data-name="Path 279" d="M4239.041,698.8c27.969-37.142,54.9-75.094,86.524-109.683a10.038,10.038,0,0,1-.62,1.664c-17.725,29.608-38.226,57.251-60.023,83.924-6.379,7.806-13.91,14.674-20.978,21.909a32.63,32.63,0,0,1-3.947,3Z" transform="translate(-172.707 -127.636)" fill="#332f2c"/>
    <path id="Path_280" data-name="Path 280" d="M4407.129,655.738c1.484-2.358,2.785-4.858,4.483-7.051,8.692-11.228,17.515-22.353,26.231-33.562,4.132-5.314,8.125-10.736,12.444-16.457-2.941,14.735-28.566,49.541-42.226,57.7Z" transform="translate(-172.707 -127.636)" fill="#332f2c"/>
    <path id="Path_281" data-name="Path 281" d="M4412.881,827c-3.7,10.746-28.564,40.677-44.643,53.734-6.455,5.241-6.455,5.241-10.063,5.691a12.009,12.009,0,0,1,1.271-2.141,624.018,624.018,0,0,0,42.921-49.336,48.13,48.13,0,0,1,4.992-5.728,31.691,31.691,0,0,1,4.8-3.126Z" transform="translate(-172.707 -127.636)" fill="#332f2c"/>
    <path id="Path_282" data-name="Path 282" d="M4307.443,876.44c1.077-1.411,2.068-2.9,3.244-4.22,10.184-11.464,20.513-22.8,30.544-34.4,3.22-3.724,6.731-5.35,11.491-4.31C4350.619,841.044,4320.794,870.285,4307.443,876.44Z" transform="translate(-172.707 -127.636)" fill="#332f2c"/>
    <path id="Path_283" data-name="Path 283" d="M4671.727,676.244c-5.5,6.208-10.516,11.775-17.446,15.1-13.277,6.372-27.069,11.281-41.656,13.59a29.822,29.822,0,0,1-10.434-.641c11.512-4.355,23.1-8.517,34.514-13.118C4648.2,686.539,4659.527,681.468,4671.727,676.244Z" transform="translate(-172.707 -127.636)" fill="#332f2c"/>
    <path id="Path_284" data-name="Path 284" d="M4617.545,658.883c11.8-6.915,24.893-10.872,37.078-16.854A51.6,51.6,0,0,1,4617.545,658.883Z" transform="translate(-172.707 -127.636)" fill="#332f2c"/>
    <path id="Path_285" data-name="Path 285" d="M4524.738,857.5c1.059-4.422,14.34-29.4,19.07-35.505-2.658,10.238-4.894,20.587-9.259,30.336C4532.543,856.816,4529.179,857.884,4524.738,857.5Z" transform="translate(-172.707 -127.636)" fill="#332f2c"/>
    <path id="Path_286" data-name="Path 286" d="M4595.751,610.059c-4.284,6.636-9.014,12.637-16.066,16.411-12.082,6.465-24.674,11.587-38.133,14.384-3.359.7-6.758,1.54-11.212.207a22.3,22.3,0,0,1,3.4-2.337c3.126-1.239,6.3-2.366,9.478-3.466a198.494,198.494,0,0,0,32.328-14.172C4582.126,617.4,4588.789,613.852,4595.751,610.059Z" transform="translate(-172.707 -127.636)" fill="#332f2c"/>
    <path id="Path_287" data-name="Path 287" d="M4579.867,586.633c-11.769,15.718-28.313,25.054-42.788,23.966-.612-2.205,1.316-2.437,2.518-3.042,7.356-3.7,14.821-7.2,22.114-11.019,5.649-2.961,11.1-6.307,16.645-9.462A7.672,7.672,0,0,1,4579.867,586.633Z" transform="translate(-172.707 -127.636)" fill="#332f2c"/>
    <path id="Path_288" data-name="Path 288" d="M4536.226,659.812l52.4-24.544.5.573a18.662,18.662,0,0,1-2,2.414c-6.54,5.675-13.463,10.748-21.813,13.5-8.485,2.8-16.964,5.618-25.461,8.381a24.9,24.9,0,0,1-3.4.62C4536.372,660.442,4536.3,660.127,4536.226,659.812Z" transform="translate(-172.707 -127.636)" fill="#332f2c"/>
    <path id="Path_289" data-name="Path 289" d="M4546.519,677.539c2.641-4.181,19.868-10.978,29.64-12.118-.507,2.389-1.089,4.617-3.257,5.928C4564.988,676.136,4556.559,678.784,4546.519,677.539Z" transform="translate(-172.707 -127.636)" fill="#332f2c"/>
    <path id="Path_290" data-name="Path 290" d="M4191.421,727.253c0,1.051.332,2.246-.05,3.131a80.732,80.732,0,0,1-24.071,31.333c4.341-13.744,14.744-23.462,22.865-34.692Z" transform="translate(-172.707 -127.636)" fill="#332f2c"/>
    <path id="Path_291" data-name="Path 291" d="M4614.083,803.406c-9.233,10.326-19.442,17.238-33.658,16.429-.273-2.848,1.654-3.242,3.073-3.808,3.9-1.556,7.937-2.787,11.812-4.4C4601.435,809.073,4607.472,806.313,4614.083,803.406Z" transform="translate(-172.707 -127.636)" fill="#332f2c"/>
    <path id="Path_292" data-name="Path 292" d="M4613.241,779.467c-9.887,8.126-20.431,14.6-33.855,13.843C4589.869,786.734,4602.294,784.885,4613.241,779.467Z" transform="translate(-172.707 -127.636)" fill="#332f2c"/>
    <path id="Path_293" data-name="Path 293" d="M4480.282,587.746c4.21-4.389,9.707-5.482,14.207-8.235C4490.77,585,4484.8,588.59,4480.282,587.746Z" transform="translate(-172.707 -127.636)"/>
  </g>
</svg>
